<svg width="110" height="40" viewBox="0 0 110 40" fill="none" xmlns="http://www.w3.org/2000/svg">
<path d="M2.60129 27V13.2053H4.38804V16.9627L4.20411 16.3058C4.58948 15.2548 5.23761 14.4578 6.1485 13.9147C7.05939 13.3542 8.18925 13.0739 9.53806 13.0739V14.8869C9.468 14.8869 9.39793 14.8869 9.32786 14.8869C9.25779 14.8694 9.18772 14.8606 9.11765 14.8606C7.66373 14.8606 6.52512 15.3073 5.70182 16.2007C4.87851 17.0766 4.46686 18.329 4.46686 19.9581V27H2.60129ZM18.6734 27.1314C17.237 27.1314 15.9757 26.8336 14.8897 26.238C13.8036 25.6249 12.954 24.7928 12.3409 23.7418C11.7278 22.6733 11.4213 21.4558 11.4213 20.0895C11.4213 18.7232 11.7103 17.5145 12.2884 16.4635C12.884 15.4124 13.6898 14.5891 14.7057 13.9935C15.7393 13.3804 16.8954 13.0739 18.1741 13.0739C19.4704 13.0739 20.6178 13.3717 21.6162 13.9673C22.6322 14.5453 23.4293 15.3686 24.0073 16.4372C24.5854 17.4882 24.8744 18.7057 24.8744 20.0895C24.8744 20.1771 24.8657 20.2734 24.8482 20.3785C24.8482 20.4661 24.8482 20.5625 24.8482 20.6676H12.8402V19.275H23.8497L23.114 19.8267C23.114 18.8283 22.895 17.9437 22.4571 17.1729C22.0367 16.3846 21.4586 15.7715 20.7229 15.3336C19.9872 14.8957 19.1376 14.6767 18.1741 14.6767C17.2282 14.6767 16.3786 14.8957 15.6254 15.3336C14.8722 15.7715 14.2853 16.3846 13.8649 17.1729C13.4445 17.9612 13.2343 18.8633 13.2343 19.8793V20.1683C13.2343 21.2194 13.462 22.1478 13.9175 22.9535C14.3904 23.7418 15.0386 24.3637 15.8619 24.8191C16.7027 25.257 17.6574 25.476 18.7259 25.476C19.5667 25.476 20.3463 25.3271 21.0645 25.0293C21.8002 24.7315 22.4308 24.2761 22.9563 23.663L24.0073 24.8717C23.3942 25.6074 22.6235 26.1679 21.6951 26.5533C20.7842 26.9387 19.7769 27.1314 18.6734 27.1314ZM32.3765 27.1314C31.2379 27.1314 30.1606 26.9737 29.1446 26.6584C28.1286 26.3256 27.3316 25.9139 26.7535 25.4235L27.5944 23.952C28.1549 24.3724 28.8731 24.7403 29.749 25.0556C30.6248 25.3534 31.5445 25.5023 32.5079 25.5023C33.8217 25.5023 34.7676 25.3008 35.3457 24.8979C35.9238 24.4775 36.2128 23.9257 36.2128 23.2426C36.2128 22.7346 36.0464 22.3404 35.7135 22.0602C35.3982 21.7624 34.9778 21.5434 34.4523 21.4033C33.9268 21.2456 33.34 21.1143 32.6918 21.0091C32.0437 20.904 31.3956 20.7814 30.7474 20.6413C30.1168 20.5012 29.5388 20.2997 29.0133 20.037C28.4877 19.7567 28.0586 19.3801 27.7257 18.9071C27.4104 18.4341 27.2528 17.8035 27.2528 17.0152C27.2528 16.262 27.463 15.5876 27.8834 14.992C28.3038 14.3964 28.9169 13.9322 29.7227 13.5994C30.546 13.2491 31.5445 13.0739 32.7181 13.0739C33.6115 13.0739 34.5049 13.1965 35.3982 13.4418C36.2916 13.6695 37.0273 13.976 37.6054 14.3614L36.7908 15.8591C36.1777 15.4387 35.5209 15.1409 34.8202 14.9657C34.1195 14.7731 33.4188 14.6767 32.7181 14.6767C31.4744 14.6767 30.5548 14.8957 29.9592 15.3336C29.3811 15.754 29.0921 16.297 29.0921 16.9627C29.0921 17.4882 29.2497 17.8999 29.565 18.1977C29.8979 18.4954 30.327 18.7319 30.8525 18.9071C31.3956 19.0648 31.9824 19.1961 32.613 19.3012C33.2612 19.4063 33.9005 19.5377 34.5311 19.6954C35.1793 19.8355 35.7661 20.037 36.2916 20.2997C36.8346 20.5449 37.2638 20.904 37.5791 21.377C37.9119 21.8325 38.0784 22.4368 38.0784 23.19C38.0784 23.9958 37.8506 24.6965 37.3952 25.2921C36.9573 25.8701 36.3091 26.3256 35.4508 26.6584C34.61 26.9737 33.5852 27.1314 32.3765 27.1314Z" fill="white"/>
<path d="M40.2508 12.059C40.0487 12.1264 39.8971 12.1348 39.7961 12.0843C39.6951 12.0338 39.6193 11.9496 39.5688 11.8317C39.5182 11.7138 39.493 11.5875 39.493 11.4528C39.493 11.3013 39.5014 11.1581 39.5182 11.0234C39.5351 10.9055 39.5603 10.7708 39.594 10.6193C39.6445 10.4677 39.7035 10.3246 39.7708 10.1899C39.8382 10.0552 39.914 9.9457 39.9982 9.86151C40.0992 9.76047 40.2255 9.69311 40.377 9.65944C41.1517 9.52472 41.901 9.42369 42.6251 9.35633C43.366 9.28897 44.0312 9.23845 44.6205 9.20478C45.2941 9.15426 45.9424 9.129 46.5655 9.129C46.7002 9.129 46.8349 9.13742 46.9696 9.15426C47.1043 9.15426 47.239 9.15426 47.3738 9.15426C47.5253 9.12058 47.6432 9.11216 47.7274 9.129C47.8284 9.129 47.9126 9.13742 47.98 9.15426C48.4683 9.1711 48.9735 9.19636 49.4955 9.23003C49.9333 9.26371 50.4217 9.30581 50.9605 9.35633C51.5162 9.39001 52.0635 9.44053 52.6023 9.50788C52.6529 9.6426 52.6613 9.81099 52.6276 10.0131C52.6108 10.1141 52.5939 10.2151 52.5771 10.3162C52.5603 10.4172 52.5182 10.5098 52.4508 10.594C52.4003 10.6782 52.3329 10.7624 52.2487 10.8466C52.1814 10.914 52.0972 10.9729 51.9961 11.0234C51.4236 11.0066 50.8679 10.9982 50.329 10.9982C49.807 10.9813 49.344 10.9729 48.9398 10.9729H47.5758C47.3569 11.7475 47.0875 12.7073 46.7675 13.8524C46.4476 14.9806 46.1192 16.1762 45.7824 17.4392C45.4625 18.6853 45.151 19.9314 44.8479 21.1775C44.5616 22.4068 44.3343 23.5181 44.1659 24.5117C43.9975 25.4715 43.8291 26.4145 43.6607 27.3407C43.5933 27.728 43.5176 28.1321 43.4334 28.5531C43.366 28.9741 43.2987 29.3866 43.2313 29.7908C43.1808 30.1949 43.1303 30.5822 43.0797 30.9527C43.0292 31.3231 42.9871 31.6599 42.9535 31.963C42.684 32.0977 42.4314 32.1988 42.1957 32.2661C41.9599 32.3503 41.7494 32.4093 41.5642 32.443C41.3453 32.4935 41.1432 32.5187 40.958 32.5187C40.5539 32.5187 40.3013 32.4682 40.2002 32.3672C40.116 32.283 40.1076 32.1062 40.175 31.8367C40.2255 31.601 40.377 30.9611 40.6296 29.9171C40.7307 29.4792 40.857 28.9235 41.0085 28.25C41.1769 27.5932 41.3706 26.7934 41.5895 25.8504C41.8084 24.8905 42.0694 23.7792 42.3725 22.5162C42.6756 21.2364 43.0208 19.7714 43.4081 18.1212L45.1005 11.0992C44.5953 11.1665 44.0985 11.2423 43.6102 11.3265C43.1218 11.4107 42.6588 11.5033 42.2209 11.6044C41.8 11.6886 41.4127 11.7728 41.059 11.857C40.7223 11.9412 40.4528 12.0085 40.2508 12.059ZM55.2293 12.9936C55.1788 13.1788 55.0777 13.3641 54.9262 13.5493C54.7915 13.7177 54.6315 13.8608 54.4462 13.9787C54.2779 14.0797 54.101 14.1471 53.9158 14.1808C53.7306 14.2145 53.579 14.1808 53.4612 14.0797C53.1075 13.8103 52.9223 13.524 52.9055 13.2209C52.8886 12.901 52.9644 12.6063 53.1328 12.3369C53.3012 12.0506 53.5117 11.8149 53.7643 11.6296C54.0168 11.4276 54.2358 11.3097 54.421 11.276C54.6062 11.2423 54.7578 11.2844 54.8756 11.4023C55.0104 11.5033 55.1114 11.6465 55.1788 11.8317C55.2461 12.0001 55.2798 12.1937 55.2798 12.4127C55.2966 12.6316 55.2798 12.8252 55.2293 12.9936ZM51.7435 18.3738C51.8277 18.2727 51.9877 18.1885 52.2235 18.1212C52.4592 18.0538 52.7034 18.0033 52.956 17.9696C53.2086 17.9191 53.4359 17.8938 53.638 17.8938C53.8569 17.877 53.9832 17.877 54.0168 17.8938C54.0337 17.9107 53.9916 18.0875 53.8906 18.4243C53.7895 18.7611 53.6632 19.1568 53.5117 19.6114C53.3601 20.0661 53.2001 20.5376 53.0318 21.0259C52.8634 21.4974 52.7371 21.8847 52.6529 22.1878C52.5687 22.491 52.4676 22.8362 52.3498 23.2235C52.2319 23.5939 52.1224 23.9644 52.0214 24.3348C51.9372 24.6885 51.8783 25.0253 51.8446 25.3452C51.8109 25.6652 51.8362 25.9093 51.9204 26.0777C52.0046 26.2798 52.0972 26.4229 52.1982 26.5071C52.2992 26.5745 52.4087 26.6081 52.5266 26.6081C52.8634 26.6081 53.2843 26.4229 53.7895 26.0525C54.3115 25.682 54.8336 25.2442 55.3556 24.739C55.8944 24.217 56.3912 23.695 56.8458 23.1729C57.3005 22.6341 57.6373 22.2047 57.8562 21.8847C57.9909 21.7163 58.1256 21.6069 58.2603 21.5564C58.4119 21.5059 58.5298 21.5143 58.614 21.5816C58.715 21.649 58.7655 21.7584 58.7655 21.91C58.7824 22.0615 58.7318 22.2384 58.614 22.4404C58.3445 22.9119 57.9488 23.476 57.4268 24.1328C56.9048 24.7727 56.3491 25.3957 55.7597 26.0019C55.1703 26.5913 54.5894 27.0965 54.0168 27.5175C53.4612 27.9385 53.0065 28.1574 52.6529 28.1742C52.3666 28.191 52.0803 28.1405 51.7941 28.0226C51.5246 27.9216 51.272 27.7785 51.0363 27.5932C50.8174 27.3912 50.6322 27.1638 50.4806 26.9113C50.329 26.6418 50.2449 26.364 50.228 26.0777C50.1775 25.6567 50.1775 25.0842 50.228 24.3601C50.2785 23.6192 50.3711 22.8698 50.5059 22.1121C50.6406 21.3375 50.809 20.605 51.011 19.9145C51.2299 19.2241 51.4741 18.7105 51.7435 18.3738ZM68.5407 26.7092C68.5407 26.3556 68.5744 25.9514 68.6417 25.4968C68.7259 25.0421 68.827 24.579 68.9448 24.1075C69.0627 23.6192 69.1806 23.1477 69.2985 22.693C69.4163 22.2384 69.5174 21.8342 69.6016 21.4806C69.7026 21.0428 69.6942 20.706 69.5763 20.4702C69.4584 20.2345 69.2564 20.1166 68.9701 20.1166C68.8354 20.1166 68.566 20.2345 68.1618 20.4702C67.7745 20.706 67.3451 21.1186 66.8736 21.7079C66.419 22.2805 65.9643 23.0635 65.5096 24.057C65.0718 25.0337 64.7266 26.2798 64.474 27.7953C64.1541 27.9637 63.851 28.0732 63.5647 28.1237C63.4132 28.1574 63.2784 28.1826 63.1606 28.1995C62.8238 28.2163 62.6049 28.1574 62.5038 28.0226C62.4028 27.9048 62.4196 27.6017 62.5544 27.1133C62.6217 26.8776 62.7396 26.4987 62.908 25.9767C63.0932 25.4547 63.27 24.8905 63.4384 24.2843C63.6068 23.6613 63.7499 23.0466 63.8678 22.4404C64.0025 21.8174 64.0699 21.2785 64.0699 20.8239C64.0699 20.5039 64.0109 20.285 63.8931 20.1671C63.792 20.0493 63.6405 19.9903 63.4384 19.9903C63.2869 19.9903 63.0343 20.0745 62.6806 20.2429C62.327 20.4113 61.9313 20.7397 61.4935 21.228C61.0557 21.7163 60.6178 22.3983 60.18 23.274C59.759 24.1328 59.397 25.2526 59.0939 26.6334V26.5829C59.0602 26.7176 59.0265 26.8523 58.9928 26.987C58.9592 27.1049 58.9339 27.2312 58.9171 27.3659C58.9002 27.5006 58.875 27.6269 58.8413 27.7448L57.5783 28.3005C57.4942 28.3342 57.3847 28.3594 57.25 28.3763C57.1321 28.3931 57.0142 28.3679 56.8964 28.3005C56.7953 28.25 56.7195 28.1321 56.669 27.9469C56.6185 27.7616 56.6354 27.4838 56.7195 27.1133L58.3109 20.5208C58.3614 20.3018 58.4035 20.0914 58.4372 19.8893C58.4708 19.7041 58.4877 19.5272 58.4877 19.3588C58.5045 19.1736 58.4961 19.0221 58.4624 18.9042C58.7487 18.7695 59.0013 18.6684 59.2202 18.6011C59.4391 18.5337 59.6159 18.4832 59.7506 18.4495C59.919 18.399 60.0621 18.3738 60.18 18.3738C60.7189 18.3738 60.8957 18.8368 60.7105 19.763C60.6431 20.0324 60.5421 20.4281 60.4073 20.9502C60.7273 20.546 61.0641 20.1671 61.4177 19.8135C61.7882 19.443 62.1586 19.1147 62.5291 18.8284C62.8996 18.5421 63.27 18.3148 63.6405 18.1464C64.0278 17.978 64.4067 17.8938 64.7771 17.8938C65.0634 17.8938 65.2991 17.978 65.4844 18.1464C65.6865 18.3148 65.838 18.5421 65.939 18.8284C66.0569 19.0978 66.1243 19.4262 66.1411 19.8135C66.158 20.184 66.1411 20.5713 66.0906 20.9754C66.36 20.6218 66.6547 20.2682 66.9747 19.9145C67.3114 19.5441 67.6566 19.2157 68.0103 18.9294C68.3807 18.6432 68.7596 18.4074 69.1469 18.2222C69.5342 18.037 69.9215 17.9444 70.3088 17.9444C70.7635 17.9444 71.1087 18.0791 71.3444 18.3485C71.597 18.6179 71.7654 18.9631 71.8496 19.3841C71.9507 19.8051 71.9759 20.2597 71.9254 20.7481C71.8917 21.2364 71.8244 21.7079 71.7233 22.1626L70.8645 25.5725C70.6793 26.4145 70.8561 26.8355 71.395 26.8355C71.8159 26.8355 72.279 26.6334 72.7842 26.2293C73.2894 25.8251 73.7777 25.3452 74.2492 24.7895C74.7376 24.2338 75.1922 23.6613 75.6132 23.0719C76.0342 22.4825 76.3878 22.011 76.6741 21.6574C76.7751 21.5395 76.8761 21.4722 76.9772 21.4553C77.0951 21.4385 77.1877 21.4638 77.255 21.5311C77.3392 21.5816 77.3813 21.6742 77.3813 21.809C77.3982 21.9437 77.3561 22.1121 77.255 22.3141C76.9182 22.9035 76.5057 23.5602 76.0173 24.2843C75.529 24.9916 74.9901 25.6567 74.4008 26.2798C73.8282 26.9028 73.2136 27.4249 72.5569 27.8458C71.9001 28.2668 71.2181 28.4773 70.5109 28.4773C70.2752 28.4773 70.0394 28.452 69.8037 28.4015C69.5847 28.351 69.3743 28.2584 69.1722 28.1237C68.9869 27.989 68.8354 27.8122 68.7175 27.5932C68.5996 27.3575 68.5407 27.0628 68.5407 26.7092ZM86.7776 22.6172C86.2724 23.3582 85.6999 24.0823 85.06 24.7895C84.4201 25.4799 83.7381 26.103 83.0141 26.6587C82.3068 27.1975 81.5743 27.6353 80.8165 27.9721C80.0756 28.3089 79.3515 28.4773 78.6443 28.4773C78.2738 28.4773 77.8697 28.3847 77.4318 28.1995C77.0109 28.0311 76.6236 27.7616 76.2699 27.3912C75.9163 27.0207 75.63 26.5408 75.4111 25.9514C75.2091 25.362 75.1501 24.6464 75.2343 23.8044C75.3017 23.114 75.5122 22.3899 75.8658 21.6321C76.2363 20.8575 76.6825 20.1503 77.2045 19.5104C77.7434 18.8705 78.3412 18.3401 78.9979 17.9191C79.6715 17.4981 80.345 17.2876 81.0186 17.2876C81.6585 17.2876 82.1216 17.4476 82.4078 17.7675C82.6941 18.0875 82.8204 18.4832 82.7867 18.9547C82.7362 19.4767 82.5847 19.9566 82.3321 20.3945C82.0963 20.8323 81.81 21.228 81.4733 21.5816C81.1365 21.9353 80.7744 22.2552 80.3871 22.5415C80.0167 22.8277 79.663 23.0887 79.3263 23.3245C78.9558 23.5771 78.6022 23.8213 78.2654 24.057C77.9286 24.2759 77.6339 24.478 77.3813 24.6632C77.3982 25.0842 77.4739 25.4378 77.6086 25.7241C77.7434 26.0104 77.9118 26.2461 78.1138 26.4313C78.3159 26.5997 78.5432 26.726 78.7958 26.8102C79.0652 26.8776 79.3347 26.9113 79.6041 26.9113C80.1766 26.9113 80.7744 26.7344 81.3975 26.3808C82.0205 26.0104 82.6267 25.5725 83.2161 25.0674C83.8223 24.5453 84.378 24.0065 84.8832 23.4508C85.4052 22.8951 85.8346 22.4152 86.1714 22.011C86.2893 21.8763 86.4072 21.8005 86.525 21.7837C86.6598 21.75 86.7608 21.7669 86.8281 21.8342C86.9123 21.8847 86.9544 21.9858 86.9544 22.1373C86.9544 22.272 86.8955 22.432 86.7776 22.6172ZM80.3114 18.7274C80.1093 18.7274 79.8651 18.8284 79.5788 19.0305C79.3094 19.2326 79.04 19.5272 78.7706 19.9145C78.5011 20.285 78.2485 20.7481 78.0128 21.3038C77.777 21.8426 77.6002 22.4657 77.4824 23.1729C77.6844 23.0214 77.9033 22.8698 78.1391 22.7183C78.3748 22.5499 78.6106 22.3731 78.8463 22.1878C79.5704 21.6321 80.0756 21.1438 80.3619 20.7228C80.6481 20.3018 80.8081 19.9398 80.8418 19.6367C80.8755 19.3168 80.8418 19.0894 80.7408 18.9547C80.6397 18.8032 80.4966 18.7274 80.3114 18.7274Z" fill="white"/>
</svg>
