<svg width="110" height="40" viewBox="0 0 110 40" fill="none" xmlns="http://www.w3.org/2000/svg">
<path d="M2.60129 27V13.2053H4.38804V16.9627L4.20411 16.3058C4.58948 15.2548 5.23761 14.4578 6.1485 13.9147C7.05939 13.3542 8.18925 13.0739 9.53806 13.0739V14.8869C9.468 14.8869 9.39793 14.8869 9.32786 14.8869C9.25779 14.8694 9.18772 14.8606 9.11765 14.8606C7.66373 14.8606 6.52512 15.3073 5.70182 16.2007C4.87851 17.0766 4.46686 18.329 4.46686 19.9581V27H2.60129ZM18.6734 27.1314C17.237 27.1314 15.9757 26.8336 14.8897 26.238C13.8036 25.6249 12.954 24.7928 12.3409 23.7418C11.7278 22.6733 11.4213 21.4558 11.4213 20.0895C11.4213 18.7232 11.7103 17.5145 12.2884 16.4635C12.884 15.4124 13.6898 14.5891 14.7057 13.9935C15.7393 13.3804 16.8954 13.0739 18.1741 13.0739C19.4704 13.0739 20.6178 13.3717 21.6162 13.9673C22.6322 14.5453 23.4293 15.3686 24.0073 16.4372C24.5854 17.4882 24.8744 18.7057 24.8744 20.0895C24.8744 20.1771 24.8657 20.2734 24.8482 20.3785C24.8482 20.4661 24.8482 20.5625 24.8482 20.6676H12.8402V19.275H23.8497L23.114 19.8267C23.114 18.8283 22.895 17.9437 22.4571 17.1729C22.0367 16.3846 21.4586 15.7715 20.7229 15.3336C19.9872 14.8957 19.1376 14.6767 18.1741 14.6767C17.2282 14.6767 16.3786 14.8957 15.6254 15.3336C14.8722 15.7715 14.2853 16.3846 13.8649 17.1729C13.4445 17.9612 13.2343 18.8633 13.2343 19.8793V20.1683C13.2343 21.2194 13.462 22.1478 13.9175 22.9535C14.3904 23.7418 15.0386 24.3637 15.8619 24.8191C16.7027 25.257 17.6574 25.476 18.7259 25.476C19.5667 25.476 20.3463 25.3271 21.0645 25.0293C21.8002 24.7315 22.4308 24.2761 22.9563 23.663L24.0073 24.8717C23.3942 25.6074 22.6235 26.1679 21.6951 26.5533C20.7842 26.9387 19.7769 27.1314 18.6734 27.1314ZM32.3765 27.1314C31.2379 27.1314 30.1606 26.9737 29.1446 26.6584C28.1286 26.3256 27.3316 25.9139 26.7535 25.4235L27.5944 23.952C28.1549 24.3724 28.8731 24.7403 29.749 25.0556C30.6248 25.3534 31.5445 25.5023 32.5079 25.5023C33.8217 25.5023 34.7676 25.3008 35.3457 24.8979C35.9238 24.4775 36.2128 23.9257 36.2128 23.2426C36.2128 22.7346 36.0464 22.3404 35.7135 22.0602C35.3982 21.7624 34.9778 21.5434 34.4523 21.4033C33.9268 21.2456 33.34 21.1143 32.6918 21.0091C32.0437 20.904 31.3956 20.7814 30.7474 20.6413C30.1168 20.5012 29.5388 20.2997 29.0133 20.037C28.4877 19.7567 28.0586 19.3801 27.7257 18.9071C27.4104 18.4341 27.2528 17.8035 27.2528 17.0152C27.2528 16.262 27.463 15.5876 27.8834 14.992C28.3038 14.3964 28.9169 13.9322 29.7227 13.5994C30.546 13.2491 31.5445 13.0739 32.7181 13.0739C33.6115 13.0739 34.5049 13.1965 35.3982 13.4418C36.2916 13.6695 37.0273 13.976 37.6054 14.3614L36.7908 15.8591C36.1777 15.4387 35.5209 15.1409 34.8202 14.9657C34.1195 14.7731 33.4188 14.6767 32.7181 14.6767C31.4744 14.6767 30.5548 14.8957 29.9592 15.3336C29.3811 15.754 29.0921 16.297 29.0921 16.9627C29.0921 17.4882 29.2497 17.8999 29.565 18.1977C29.8979 18.4954 30.327 18.7319 30.8525 18.9071C31.3956 19.0648 31.9824 19.1961 32.613 19.3012C33.2612 19.4063 33.9005 19.5377 34.5311 19.6954C35.1793 19.8355 35.7661 20.037 36.2916 20.2997C36.8346 20.5449 37.2638 20.904 37.5791 21.377C37.9119 21.8325 38.0784 22.4368 38.0784 23.19C38.0784 23.9958 37.8506 24.6965 37.3952 25.2921C36.9573 25.8701 36.3091 26.3256 35.4508 26.6584C34.61 26.9737 33.5852 27.1314 32.3765 27.1314Z" fill="#6E39C3"/>
<path d="M40.2508 12.0589C40.0487 12.1263 39.8971 12.1347 39.7961 12.0842C39.6951 12.0336 39.6193 11.9494 39.5688 11.8316C39.5182 11.7137 39.493 11.5874 39.493 11.4527C39.493 11.3011 39.5014 11.158 39.5182 11.0233C39.5351 10.9054 39.5603 10.7707 39.594 10.6191C39.6445 10.4676 39.7035 10.3245 39.7708 10.1897C39.8382 10.055 39.914 9.94557 39.9982 9.86138C40.0992 9.76034 40.2255 9.69298 40.377 9.65931C41.1517 9.52459 41.901 9.42356 42.6251 9.3562C43.366 9.28884 44.0312 9.23832 44.6205 9.20465C45.2941 9.15413 45.9424 9.12887 46.5655 9.12887C46.7002 9.12887 46.8349 9.13729 46.9696 9.15413C47.1043 9.15413 47.239 9.15413 47.3738 9.15413C47.5253 9.12045 47.6432 9.11203 47.7274 9.12887C47.8284 9.12887 47.9126 9.13729 47.98 9.15413C48.4683 9.17097 48.9735 9.19623 49.4955 9.22991C49.9333 9.26358 50.4217 9.30568 50.9605 9.3562C51.5162 9.38988 52.0635 9.4404 52.6023 9.50775C52.6529 9.64247 52.6613 9.81086 52.6276 10.0129C52.6108 10.114 52.5939 10.215 52.5771 10.316C52.5603 10.4171 52.5182 10.5097 52.4508 10.5939C52.4003 10.6781 52.3329 10.7623 52.2487 10.8465C52.1814 10.9138 52.0972 10.9728 51.9961 11.0233C51.4236 11.0064 50.8679 10.998 50.329 10.998C49.807 10.9812 49.344 10.9728 48.9398 10.9728H47.5758C47.3569 11.7474 47.0875 12.7072 46.7675 13.8523C46.4476 14.9805 46.1192 16.1761 45.7824 17.439C45.4625 18.6851 45.151 19.9313 44.8479 21.1774C44.5616 22.4066 44.3343 23.518 44.1659 24.5115C43.9975 25.4714 43.8291 26.4144 43.6607 27.3405C43.5933 27.7278 43.5176 28.132 43.4334 28.553C43.366 28.9739 43.2987 29.3865 43.2313 29.7906C43.1808 30.1948 43.1303 30.5821 43.0797 30.9525C43.0292 31.323 42.9871 31.6598 42.9535 31.9629C42.684 32.0976 42.4314 32.1987 42.1957 32.266C41.9599 32.3502 41.7494 32.4091 41.5642 32.4428C41.3453 32.4933 41.1432 32.5186 40.958 32.5186C40.5539 32.5186 40.3013 32.4681 40.2002 32.367C40.116 32.2828 40.1076 32.106 40.175 31.8366C40.2255 31.6009 40.377 30.961 40.6296 29.9169C40.7307 29.4791 40.857 28.9234 41.0085 28.2498C41.1769 27.5931 41.3706 26.7933 41.5895 25.8503C41.8084 24.8904 42.0694 23.779 42.3725 22.5161C42.6756 21.2363 43.0208 19.7713 43.4081 18.121L45.1005 11.0991C44.5953 11.1664 44.0985 11.2422 43.6102 11.3264C43.1218 11.4106 42.6588 11.5032 42.2209 11.6042C41.8 11.6884 41.4127 11.7726 41.059 11.8568C40.7223 11.941 40.4528 12.0084 40.2508 12.0589ZM55.2293 12.9935C55.1788 13.1787 55.0777 13.3639 54.9262 13.5492C54.7915 13.7176 54.6315 13.8607 54.4462 13.9786C54.2779 14.0796 54.101 14.147 53.9158 14.1806C53.7306 14.2143 53.579 14.1806 53.4612 14.0796C53.1075 13.8102 52.9223 13.5239 52.9055 13.2208C52.8886 12.9009 52.9644 12.6062 53.1328 12.3367C53.3012 12.0505 53.5117 11.8147 53.7643 11.6295C54.0168 11.4274 54.2358 11.3096 54.421 11.2759C54.6062 11.2422 54.7578 11.2843 54.8756 11.4022C55.0104 11.5032 55.1114 11.6463 55.1788 11.8316C55.2461 12 55.2798 12.1936 55.2798 12.4125C55.2966 12.6314 55.2798 12.8251 55.2293 12.9935ZM51.7435 18.3736C51.8277 18.2726 51.9877 18.1884 52.2235 18.121C52.4592 18.0537 52.7034 18.0032 52.956 17.9695C53.2086 17.919 53.4359 17.8937 53.638 17.8937C53.8569 17.8769 53.9832 17.8769 54.0168 17.8937C54.0337 17.9105 53.9916 18.0874 53.8906 18.4241C53.7895 18.7609 53.6632 19.1566 53.5117 19.6113C53.3601 20.066 53.2001 20.5375 53.0318 21.0258C52.8634 21.4973 52.7371 21.8846 52.6529 22.1877C52.5687 22.4908 52.4676 22.836 52.3498 23.2233C52.2319 23.5938 52.1224 23.9643 52.0214 24.3347C51.9372 24.6883 51.8783 25.0251 51.8446 25.3451C51.8109 25.665 51.8362 25.9092 51.9204 26.0776C52.0046 26.2797 52.0972 26.4228 52.1982 26.507C52.2992 26.5743 52.4087 26.608 52.5266 26.608C52.8634 26.608 53.2843 26.4228 53.7895 26.0523C54.3115 25.6819 54.8336 25.244 55.3556 24.7389C55.8944 24.2168 56.3912 23.6948 56.8458 23.1728C57.3005 22.634 57.6373 22.2046 57.8562 21.8846C57.9909 21.7162 58.1256 21.6068 58.2603 21.5562C58.4119 21.5057 58.5298 21.5141 58.614 21.5815C58.715 21.6489 58.7655 21.7583 58.7655 21.9099C58.7824 22.0614 58.7318 22.2382 58.614 22.4403C58.3445 22.9118 57.9488 23.4759 57.4268 24.1326C56.9048 24.7725 56.3491 25.3956 55.7597 26.0018C55.1703 26.5912 54.5894 27.0964 54.0168 27.5173C53.4612 27.9383 53.0065 28.1572 52.6529 28.1741C52.3666 28.1909 52.0803 28.1404 51.7941 28.0225C51.5246 27.9215 51.272 27.7783 51.0363 27.5931C50.8174 27.391 50.6322 27.1637 50.4806 26.9111C50.329 26.6417 50.2449 26.3639 50.228 26.0776C50.1775 25.6566 50.1775 25.0841 50.228 24.36C50.2785 23.6191 50.3711 22.8697 50.5059 22.1119C50.6406 21.3373 50.809 20.6048 51.011 19.9144C51.2299 19.224 51.4741 18.7104 51.7435 18.3736ZM68.5407 26.7091C68.5407 26.3554 68.5744 25.9513 68.6417 25.4966C68.7259 25.042 68.827 24.5789 68.9448 24.1074C69.0627 23.6191 69.1806 23.1476 69.2985 22.6929C69.4163 22.2382 69.5174 21.8341 69.6016 21.4805C69.7026 21.0426 69.6942 20.7059 69.5763 20.4701C69.4584 20.2344 69.2564 20.1165 68.9701 20.1165C68.8354 20.1165 68.566 20.2344 68.1618 20.4701C67.7745 20.7059 67.3451 21.1184 66.8736 21.7078C66.419 22.2803 65.9643 23.0634 65.5096 24.0569C65.0718 25.0335 64.7266 26.2797 64.474 27.7952C64.1541 27.9636 63.851 28.073 63.5647 28.1236C63.4132 28.1572 63.2784 28.1825 63.1606 28.1993C62.8238 28.2162 62.6049 28.1572 62.5038 28.0225C62.4028 27.9046 62.4196 27.6015 62.5544 27.1132C62.6217 26.8774 62.7396 26.4986 62.908 25.9765C63.0932 25.4545 63.27 24.8904 63.4384 24.2842C63.6068 23.6611 63.7499 23.0465 63.8678 22.4403C64.0025 21.8173 64.0699 21.2784 64.0699 20.8237C64.0699 20.5038 64.0109 20.2849 63.8931 20.167C63.792 20.0491 63.6405 19.9902 63.4384 19.9902C63.2869 19.9902 63.0343 20.0744 62.6806 20.2428C62.327 20.4112 61.9313 20.7395 61.4935 21.2279C61.0557 21.7162 60.6178 22.3982 60.18 23.2738C59.759 24.1326 59.397 25.2525 59.0939 26.6333V26.5828C59.0602 26.7175 59.0265 26.8522 58.9928 26.9869C58.9592 27.1048 58.9339 27.2311 58.9171 27.3658C58.9002 27.5005 58.875 27.6268 58.8413 27.7447L57.5783 28.3004C57.4942 28.334 57.3847 28.3593 57.25 28.3761C57.1321 28.393 57.0142 28.3677 56.8964 28.3004C56.7953 28.2498 56.7195 28.132 56.669 27.9467C56.6185 27.7615 56.6354 27.4837 56.7195 27.1132L58.3109 20.5206C58.3614 20.3017 58.4035 20.0912 58.4372 19.8892C58.4708 19.7039 58.4877 19.5271 58.4877 19.3587C58.5045 19.1735 58.4961 19.0219 58.4624 18.9041C58.7487 18.7693 59.0013 18.6683 59.2202 18.601C59.4391 18.5336 59.6159 18.4831 59.7506 18.4494C59.919 18.3989 60.0621 18.3736 60.18 18.3736C60.7189 18.3736 60.8957 18.8367 60.7105 19.7629C60.6431 20.0323 60.5421 20.428 60.4073 20.95C60.7273 20.5459 61.0641 20.167 61.4177 19.8134C61.7882 19.4429 62.1586 19.1145 62.5291 18.8283C62.8996 18.542 63.27 18.3147 63.6405 18.1463C64.0278 17.9779 64.4067 17.8937 64.7771 17.8937C65.0634 17.8937 65.2991 17.9779 65.4844 18.1463C65.6865 18.3147 65.838 18.542 65.939 18.8283C66.0569 19.0977 66.1243 19.4261 66.1411 19.8134C66.158 20.1838 66.1411 20.5711 66.0906 20.9753C66.36 20.6217 66.6547 20.268 66.9747 19.9144C67.3114 19.544 67.6566 19.2156 68.0103 18.9293C68.3807 18.6431 68.7596 18.4073 69.1469 18.2221C69.5342 18.0368 69.9215 17.9442 70.3088 17.9442C70.7635 17.9442 71.1087 18.0789 71.3444 18.3484C71.597 18.6178 71.7654 18.963 71.8496 19.384C71.9507 19.805 71.9759 20.2596 71.9254 20.748C71.8917 21.2363 71.8244 21.7078 71.7233 22.1625L70.8645 25.5724C70.6793 26.4144 70.8561 26.8353 71.395 26.8353C71.8159 26.8353 72.279 26.6333 72.7842 26.2291C73.2894 25.825 73.7777 25.3451 74.2492 24.7894C74.7376 24.2337 75.1922 23.6611 75.6132 23.0718C76.0342 22.4824 76.3878 22.0109 76.6741 21.6573C76.7751 21.5394 76.8761 21.472 76.9772 21.4552C77.0951 21.4384 77.1877 21.4636 77.255 21.531C77.3392 21.5815 77.3813 21.6741 77.3813 21.8088C77.3982 21.9435 77.3561 22.1119 77.255 22.314C76.9182 22.9034 76.5057 23.5601 76.0173 24.2842C75.529 24.9915 74.9901 25.6566 74.4008 26.2797C73.8282 26.9027 73.2136 27.4247 72.5569 27.8457C71.9001 28.2667 71.2181 28.4772 70.5109 28.4772C70.2752 28.4772 70.0394 28.4519 69.8037 28.4014C69.5847 28.3509 69.3743 28.2583 69.1722 28.1236C68.9869 27.9888 68.8354 27.812 68.7175 27.5931C68.5996 27.3574 68.5407 27.0627 68.5407 26.7091ZM86.7776 22.6171C86.2724 23.358 85.6999 24.0821 85.06 24.7894C84.4201 25.4798 83.7381 26.1028 83.0141 26.6585C82.3068 27.1974 81.5743 27.6352 80.8165 27.972C80.0756 28.3088 79.3515 28.4772 78.6443 28.4772C78.2738 28.4772 77.8697 28.3846 77.4318 28.1993C77.0109 28.0309 76.6236 27.7615 76.2699 27.391C75.9163 27.0206 75.63 26.5407 75.4111 25.9513C75.2091 25.3619 75.1501 24.6462 75.2343 23.8043C75.3017 23.1139 75.5122 22.3898 75.8658 21.632C76.2363 20.8574 76.6825 20.1502 77.2045 19.5103C77.7434 18.8704 78.3412 18.3399 78.9979 17.919C79.6715 17.498 80.345 17.2875 81.0186 17.2875C81.6585 17.2875 82.1216 17.4475 82.4078 17.7674C82.6941 18.0874 82.8204 18.4831 82.7867 18.9546C82.7362 19.4766 82.5847 19.9565 82.3321 20.3943C82.0963 20.8322 81.81 21.2279 81.4733 21.5815C81.1365 21.9351 80.7744 22.2551 80.3871 22.5413C80.0167 22.8276 79.663 23.0886 79.3263 23.3244C78.9558 23.577 78.6022 23.8211 78.2654 24.0569C77.9286 24.2758 77.6339 24.4779 77.3813 24.6631C77.3982 25.0841 77.4739 25.4377 77.6086 25.724C77.7434 26.0102 77.9118 26.246 78.1138 26.4312C78.3159 26.5996 78.5432 26.7259 78.7958 26.8101C79.0652 26.8774 79.3347 26.9111 79.6041 26.9111C80.1766 26.9111 80.7744 26.7343 81.3975 26.3807C82.0205 26.0102 82.6267 25.5724 83.2161 25.0672C83.8223 24.5452 84.378 24.0064 84.8832 23.4507C85.4052 22.895 85.8346 22.415 86.1714 22.0109C86.2893 21.8762 86.4072 21.8004 86.525 21.7836C86.6598 21.7499 86.7608 21.7667 86.8281 21.8341C86.9123 21.8846 86.9544 21.9856 86.9544 22.1372C86.9544 22.2719 86.8955 22.4319 86.7776 22.6171ZM80.3114 18.7272C80.1093 18.7272 79.8651 18.8283 79.5788 19.0304C79.3094 19.2324 79.04 19.5271 78.7706 19.9144C78.5011 20.2849 78.2485 20.748 78.0128 21.3037C77.777 21.8425 77.6002 22.4656 77.4824 23.1728C77.6844 23.0213 77.9033 22.8697 78.1391 22.7182C78.3748 22.5498 78.6106 22.3729 78.8463 22.1877C79.5704 21.632 80.0756 21.1437 80.3619 20.7227C80.6481 20.3017 80.8081 19.9397 80.8418 19.6366C80.8755 19.3166 80.8418 19.0893 80.7408 18.9546C80.6397 18.803 80.4966 18.7272 80.3114 18.7272Z" fill="#6E39C3"/>
</svg>
